<svg xmlns="http://www.w3.org/2000/svg" xmlns:xlink="http://www.w3.org/1999/xlink" viewBox="0,0,256,256" width="100px" height="100px"><g fill="#073042" fill-rule="nonzero" stroke="none" stroke-width="1" stroke-linecap="butt" stroke-linejoin="miter" stroke-miterlimit="10" stroke-dasharray="" stroke-dashoffset="0" font-family="none" font-weight="none" font-size="none" text-anchor="none" style="mix-blend-mode: normal"><g transform="scale(2.56,2.56)"><path d="M28.08594,16.05469c-0.0664,-0.00266 -0.13289,-0.00201 -0.19922,0.00195c-0.45801,0.02609 -0.89312,0.20883 -1.23242,0.51758l-11,10c-0.74157,0.67516 -0.86852,1.79512 -0.29687,2.61914c8.15154,11.75527 14.39025,18.25836 19.93164,22.86524l-21.58984,18.47656c-0.45721,0.39204 -0.71343,0.96922 -0.69751,1.57128c0.01591,0.60206 0.30227,1.1649 0.77954,1.53224l13,10c0.70347,0.54083 1.67916,0.55355 2.39648,0.03125c5.53007,-4.03103 11.56051,-8.7366 21.77149,-20.55273l18.51367,22.2168c0.38002,0.4564 0.94321,0.72032 1.53711,0.72032c0.5939,0 1.15709,-0.26392 1.53711,-0.72032l10,-12c0.63207,-0.75901 0.61548,-1.86575 -0.03906,-2.60547c-5.07873,-5.74533 -11.13167,-11.66103 -18.60937,-17.80078c4.71919,-4.83277 11.00781,-11.36063 21.5625,-22.49805c0.38935,-0.41099 0.5863,-0.96773 0.542,-1.53214c-0.0443,-0.5644 -0.32571,-1.08359 -0.77442,-1.4288l-13,-10c-0.81135,-0.62363 -1.96254,-0.5343 -2.66797,0.20703c-7.07653,7.44217 -13.16902,14.50026 -18.60352,21.30469c-5.50119,-6.56719 -12.22935,-13.78489 -21.59375,-22.39844c-0.34708,-0.31982 -0.79607,-0.50662 -1.26758,-0.52734zM27.95117,20.80078c6.69349,6.23194 12.12615,11.78459 16.63672,16.83984l-1.48242,2.9668c-0.15991,0.3196 -0.13713,0.70024 0.05975,0.99849c0.19688,0.29825 0.53794,0.46878 0.89467,0.44734c0.35673,-0.02144 0.67491,-0.23161 0.83464,-0.55129l1.12109,-2.24023c1.20764,1.38587 2.36295,2.7437 3.43555,4.05664c0.38405,0.46995 0.96069,0.7401 1.56758,0.73441c0.60688,-0.0057 1.17836,-0.28663 1.55352,-0.7637c5.36536,-6.83357 11.58845,-14.01044 18.66797,-21.5293l5.92773,4.56055l-1.62891,0.8457c-0.31716,0.16467 -0.52237,0.48604 -0.53833,0.84304c-0.01596,0.357 0.15975,0.6954 0.46095,0.88771c0.3012,0.19232 0.68211,0.20933 0.99926,0.04464l2.45703,-1.27539l2.0957,1.61328c-1.29664,1.36654 -2.12976,2.23175 -3.32812,3.49219l-3.49023,-0.69727c-0.06481,-0.01434 -0.1309,-0.02219 -0.19727,-0.02344c-0.5212,-0.00884 -0.96178,0.38415 -1.01234,0.90297c-0.05055,0.51882 0.30587,0.98946 0.81898,1.08141l2.24805,0.44922c-1.22081,1.28263 -2.41701,2.5416 -3.5293,3.70703c-0.0901,-0.05122 -0.18762,-0.08812 -0.28906,-0.10937l-4.13281,-1c-0.09684,-0.02521 -0.19691,-0.03574 -0.29687,-0.03125c-0.50013,0.02316 -0.90608,0.41259 -0.94998,0.91133c-0.04391,0.49874 0.28776,0.9531 0.77615,1.06328l3.33008,0.80469c-0.35176,0.36805 -0.82593,0.86916 -1.16602,1.22461h-4.79492c-0.36064,-0.0051 -0.69608,0.18438 -0.87789,0.49587c-0.18181,0.3115 -0.18181,0.69676 0,1.00825c0.18181,0.3115 0.51725,0.50097 0.87789,0.49587h2.88477c-0.78681,0.82059 -1.21638,1.25459 -1.93359,2h-3.95117c-0.36064,-0.0051 -0.69608,0.18438 -0.87789,0.49587c-0.18181,0.3115 -0.18181,0.69676 0,1.00825c0.18181,0.3115 0.51725,0.50097 0.87789,0.49587h2.01758c-0.31487,0.32587 -0.64067,0.66222 -0.93945,0.9707l-2.76172,-0.91992c-0.12651,-0.0445 -0.26068,-0.0631 -0.39453,-0.05469c-0.47998,0.03103 -0.86989,0.39934 -0.9282,0.87678c-0.05831,0.47744 0.23151,0.92876 0.68991,1.07439l1.85547,0.61914c-0.5708,0.58669 -1.46527,1.52139 -1.9668,2.0332c-0.39602,0.40395 -0.60248,0.9567 -0.56823,1.52136c0.03424,0.56466 0.30598,1.08841 0.74792,1.44154c7.61062,6.0813 13.45822,11.85934 18.56836,17.52734l-7.32031,8.78516l-0.19922,-0.24023l1.09375,-2.1875c0.16492,-0.3182 0.14697,-0.70032 -0.04706,-1.00165c-0.19403,-0.30133 -0.53447,-0.4758 -0.89239,-0.45733c-0.36508,0.01873 -0.69085,0.23517 -0.84961,0.56445l-0.70312,1.40625l-0.9668,-1.16211l1.41406,-2.26953c0.20352,-0.31667 0.21198,-0.7208 0.0219,-1.04572c-0.19008,-0.32492 -0.54651,-0.51557 -0.92229,-0.49334c-0.32958,0.0191 -0.6285,0.19962 -0.79883,0.48242l-1.0625,1.70898l-2.41016,-2.89258l1.1543,-1.73242c0.21326,-0.31011 0.23436,-0.7137 0.0546,-1.04436c-0.17976,-0.33066 -0.52994,-0.5324 -0.90616,-0.52205c-0.32962,0.00908 -0.63357,0.18006 -0.8125,0.45703l-0.82617,1.24023l-0.88672,-1.06445l1.37695,-2.06641c0.21326,-0.31011 0.23436,-0.7137 0.0546,-1.04436c-0.17976,-0.33066 -0.52994,-0.5324 -0.90616,-0.52205c-0.32962,0.00908 -0.63357,0.18006 -0.8125,0.45703l-1.04883,1.57227l-8.58203,-10.29883c-0.37831,-0.45437 -0.93826,-0.71808 -1.52949,-0.72035c-0.59124,-0.00226 -1.15318,0.25717 -1.53496,0.70863c-1.55291,1.83543 -2.96944,3.44763 -4.32422,4.95703l-1.18555,-1.33008c-0.19991,-0.23042 -0.49406,-0.35699 -0.79883,-0.34375c-0.38783,0.01741 -0.73055,0.25769 -0.87913,0.61636c-0.14857,0.35867 -0.07615,0.77092 0.18577,1.05747l1.32227,1.48438c-1.14631,1.2481 -2.23411,2.39927 -3.25586,3.44141l-0.55664,-2.78711c-0.0893,-0.47816 -0.5097,-0.82273 -0.99609,-0.81641c-0.29958,0.00395 -0.58162,0.142 -0.76851,0.37618c-0.18689,0.23418 -0.25894,0.53981 -0.19634,0.8328l0.82031,4.09961c-0.40844,0.39993 -0.80641,0.78168 -1.19727,1.15234l-0.67187,-2.69141c-0.11132,-0.47371 -0.54745,-0.79854 -1.0332,-0.76953c-0.29995,0.01748 -0.57614,0.16889 -0.7522,0.41235c-0.17607,0.24346 -0.23334,0.55318 -0.156,0.84351l0.93945,3.75586c-0.23159,0.20923 -0.46138,0.41519 -0.6875,0.61523l-0.93945,-2.91992c-0.1315,-0.42959 -0.53331,-0.71877 -0.98242,-0.70703c-0.31768,0.00809 -0.6126,0.16668 -0.79453,0.42723c-0.18193,0.26055 -0.2292,0.59206 -0.12734,0.89308l1.20117,3.72656c-2.0137,1.69226 -3.85661,3.09576 -5.66406,4.42383l-0.86328,-0.66406l1.44336,-0.96094c0.37753,-0.2437 0.54618,-0.70926 0.4123,-1.13821c-0.13387,-0.42894 -0.5374,-0.71594 -0.98652,-0.70163c-0.19154,0.00611 -0.3773,0.06712 -0.53516,0.17578l-2.00781,1.33789l-0.87109,-0.66992l1.88086,-0.94141c0.42351,-0.20244 0.64923,-0.67217 0.54269,-1.12932c-0.10654,-0.45715 -0.51668,-0.77869 -0.98605,-0.77303c-0.1572,0.00177 -0.31178,0.04058 -0.45117,0.11328l-2.74805,1.375l-0.49219,-0.37891l1.39453,-1.39453c0.29576,-0.28749 0.38469,-0.72707 0.22393,-1.10691c-0.16075,-0.37985 -0.53821,-0.62204 -0.9505,-0.60988c-0.2598,0.00774 -0.50638,0.11632 -0.6875,0.30273l-1.57812,1.57813l-2.54102,-1.95312l21.49805,-18.39844c0.45619,-0.39062 0.71272,-0.96556 0.69871,-1.56597c-0.01401,-0.60042 -0.29706,-1.16276 -0.77098,-1.53169c-1.1209,-0.87327 -2.28345,-1.85585 -3.47852,-2.92383l2.12109,-0.5293c0.49022,-0.11721 0.8166,-0.58092 0.76154,-1.08194c-0.05506,-0.50102 -0.47436,-0.88277 -0.97834,-0.89072c-0.09028,-0.00106 -0.18029,0.01011 -0.26758,0.0332l-3.38672,0.84766c-1.19287,-1.13975 -2.41916,-2.37083 -3.71484,-3.7793l1.89844,-1.26562c0.37753,-0.2437 0.54618,-0.70926 0.4123,-1.13821c-0.13387,-0.42894 -0.5374,-0.71594 -0.98652,-0.70163c-0.19154,0.00611 -0.3773,0.06712 -0.53516,0.17578l-2.12891,1.41992c-0.47776,-0.5409 -0.95538,-1.07728 -1.44922,-1.66016l3.05859,-2.10547c0.37321,-0.24982 0.53413,-0.71779 0.39347,-1.14431c-0.14065,-0.42652 -0.54838,-0.70697 -0.99699,-0.68577c-0.19099,0.00915 -0.37536,0.07287 -0.53125,0.18359l-3.19922,2.20313c-0.57334,-0.69982 -1.15564,-1.41996 -1.75195,-2.17969l2.60742,-1.30469c0.42351,-0.20244 0.64923,-0.67217 0.54269,-1.12932c-0.10654,-0.45715 -0.51668,-0.77869 -0.98605,-0.77303c-0.1572,0.00177 -0.31178,0.04058 -0.45117,0.11328l-2.95898,1.47852c-1.25756,-1.6476 -2.54797,-3.38096 -3.91602,-5.31641zM46.48047,45.06641c-0.855,0.038 -1.51652,0.76223 -1.47852,1.61523c0.037,0.853 0.76028,1.51651 1.61328,1.47852c0.853,-0.038 1.51847,-0.76028 1.48047,-1.61328c-0.038,-0.853 -0.76223,-1.51847 -1.61523,-1.48047zM52.67383,48.16406c-0.853,0.038 -1.51652,0.76028 -1.47852,1.61328c0.038,0.853 0.76028,1.51847 1.61328,1.48047c0.853,-0.038 1.51552,-0.76223 1.47852,-1.61523c-0.038,-0.853 -0.76028,-1.51652 -1.61328,-1.47852zM49.57813,53.96094c-0.853,0.038 -1.51652,0.76028 -1.47852,1.61328c0.037,0.853 0.75928,1.51552 1.61328,1.47852c0.853,-0.038 1.51651,-0.76028 1.47852,-1.61328c-0.038,-0.853 -0.76028,-1.51652 -1.61328,-1.47852z"></path></g></g></svg>