<svg xmlns="http://www.w3.org/2000/svg" xmlns:xlink="http://www.w3.org/1999/xlink" viewBox="0,0,256,256" width="100px" height="100px"><g fill="#073042" fill-rule="nonzero" stroke="none" stroke-width="1" stroke-linecap="butt" stroke-linejoin="miter" stroke-miterlimit="10" stroke-dasharray="" stroke-dashoffset="0" font-family="none" font-weight="none" font-size="none" text-anchor="none" style="mix-blend-mode: normal"><g transform="scale(2.56,2.56)"><path d="M88.10547,10.02734c-0.38064,0.01904 -0.74792,0.14644 -1.05859,0.36719c-19.95552,14.19142 -35.39765,33.21308 -46.79492,53.47656c-2.06728,-2.21453 -4.88901,-4.68521 -8.83203,-7.46484c-1.48656,-1.04795 -3.07835,-2.09745 -4.73047,-3.125c-0.07789,-0.06636 -0.16549,-0.12037 -0.25977,-0.16016c-4.08515,-2.52292 -8.56588,-4.87732 -13.02734,-6.55469c-0.78671,-0.29648 -1.67484,-0.06938 -2.22266,0.56836l-8.69531,10.13281c-0.47145,0.54951 -0.60912,1.31091 -0.35997,1.99072c0.24916,0.67982 0.84625,1.17191 1.56114,1.28662c13.97279,2.23028 25.61042,13.13384 36.06445,29.01367c0.37231,0.56525 1.00522,0.90386 1.68206,0.89992c0.67683,-0.00394 1.30576,-0.34991 1.67146,-0.91945c13.87893,-21.62556 26.47948,-44.25191 54.8125,-63.86328c0.44008,-0.30498 0.73951,-0.77367 0.83128,-1.30117c0.09177,-0.5275 -0.03178,-1.06978 -0.343,-1.50547l-8.57227,-12.00586c-0.39565,-0.55445 -1.04625,-0.86944 -1.72656,-0.83594zM87.77539,14.86523l6.24219,8.74414c-26.80709,19.08753 -39.75156,40.94442 -52.7207,61.32617c-0.36546,-0.52978 -0.73609,-1.0451 -1.10547,-1.56445l2.36719,-2.95898c0.25049,-0.30441 0.29879,-0.72757 0.12333,-1.08059c-0.17546,-0.35302 -0.54193,-0.57004 -0.93583,-0.55417c-0.29448,0.01149 -0.5689,0.15227 -0.75,0.38477l-2.02148,2.52734c-0.33202,-0.45082 -0.66469,-0.89983 -1,-1.3418l1.30664,-2.66016c0.16303,-0.31933 0.14263,-0.7015 -0.05345,-1.00168c-0.19608,-0.30017 -0.53784,-0.47241 -0.89577,-0.45145c-0.36495,0.02125 -0.68922,0.23993 -0.8457,0.57031l-0.87695,1.78711c-0.33302,-0.42095 -0.66559,-0.84403 -1.00195,-1.25586l2.70703,-3.9668c0.21577,-0.30768 0.24086,-0.71035 0.06493,-1.04242c-0.17593,-0.33208 -0.52316,-0.5375 -0.89891,-0.5318c-0.32986,0.00499 -0.63604,0.17233 -0.81836,0.44727l-2.38867,3.5c-7.80292,-9.1443 -16.51766,-15.78544 -26.625,-18.34961l5.57812,-6.50195c1.7823,0.72206 3.58074,1.55933 5.35938,2.46094l-0.86133,1.03125c-0.23965,0.27299 -0.31243,0.65445 -0.19013,0.9965c0.1223,0.34205 0.42045,0.59088 0.77885,0.65004c0.3584,0.05915 0.7207,-0.08068 0.94643,-0.36529l1.14063,-1.36523c0.73863,0.39802 1.46869,0.80545 2.19141,1.22266l-1.09961,0.87891c-0.27923,0.22326 -0.41811,0.57854 -0.36431,0.93197c0.0538,0.35343 0.29209,0.65131 0.6251,0.78137c0.33301,0.13007 0.71011,0.07256 0.98921,-0.15085l1.6875,-1.34961c0.71009,0.43333 1.40749,0.87105 2.08984,1.31445l-1.56641,2.00391c-0.23348,0.28007 -0.29603,0.66502 -0.16325,1.0046c0.13279,0.33959 0.43987,0.58 0.8014,0.6274c0.36153,0.0474 0.72021,-0.10571 0.93606,-0.39958l1.66016,-2.12305c0.30964,0.2119 0.6265,0.42241 0.92773,0.63477c1.23813,0.87282 2.40699,1.75539 3.48242,2.60938l-2.68359,3.56836c-0.22095,0.28502 -0.27134,0.66693 -0.13187,0.9995c0.13947,0.33257 0.44719,0.5643 0.80535,0.60647c0.35816,0.04217 0.71129,-0.11176 0.92418,-0.40285l2.63672,-3.50586c2.46643,2.07206 4.22281,3.84073 4.79102,4.69336c0.38839,0.58339 1.05379,0.92095 1.75394,0.88978c0.70016,-0.03117 1.33293,-0.42653 1.66793,-1.04212c3.64699,-6.70169 7.76543,-13.25862 12.33398,-19.55664l4.47852,1.05859c0.35318,0.09778 0.73155,-0.00543 0.98616,-0.269c0.25461,-0.26357 0.34467,-0.64529 0.23473,-0.99487c-0.10994,-0.34958 -0.40227,-0.61104 -0.76191,-0.68144l-3.65625,-0.86523c0.80086,-1.07495 1.61899,-2.13938 2.44727,-3.19727l5.10156,-0.64453c0.51773,-0.06279 0.90029,-0.51289 0.87883,-1.03397c-0.02146,-0.52108 -0.43973,-0.9382 -0.96087,-0.95822c-0.05611,-0.00212 -0.1123,0.0005 -0.16797,0.00781l-3.0625,0.38672c0.56406,-0.69524 1.123,-1.39328 1.69922,-2.08008l4.93555,-0.27148c0.55228,-0.01079 0.99126,-0.46725 0.98047,-1.01953c-0.01079,-0.55228 -0.46725,-0.99126 -1.01953,-0.98047c-0.02348,0.00048 -0.04693,0.00178 -0.07031,0.00391l-3.01367,0.16406c1.74188,-2.00501 3.53813,-3.96755 5.38672,-5.88867l3.11523,2.64258c0.27124,0.24111 0.65182,0.31636 0.99441,0.19662c0.34259,-0.11974 0.59344,-0.41567 0.65543,-0.77325c0.062,-0.35758 -0.07458,-0.72068 -0.35687,-0.94876l-3.01562,-2.55859c2.3433,-2.37226 4.77079,-4.6725 7.28125,-6.89258l1.03516,2.77734c0.12484,0.33503 0.41895,0.57798 0.77153,0.63732c0.35257,0.05934 0.71001,-0.07396 0.93764,-0.34966c0.22763,-0.27571 0.29085,-0.65192 0.16583,-0.98688l-1.29492,-3.47461c0.54333,-0.46636 1.08185,-0.93777 1.63281,-1.39648l2.03711,4.69922c0.13315,0.341 0.44195,0.582 0.80508,0.62831c0.36313,0.04631 0.72254,-0.10947 0.93701,-0.40614c0.21447,-0.29666 0.24972,-0.6868 0.0919,-1.0171l-2.25781,-5.21094c1.67909,-1.3568 3.38066,-2.69007 5.12891,-3.97266zM77.63867,30.92969c-0.635,0 -1.15039,0.52955 -1.15039,1.18555c0,0.655 0.51539,1.18945 1.15039,1.18945c0.635,0 1.15039,-0.53445 1.15039,-1.18945c0,-0.656 -0.51539,-1.18555 -1.15039,-1.18555zM53.43359,58.43945c-0.634,0 -1.14939,0.5325 -1.15039,1.1875c0,0.655 0.51539,1.1875 1.15039,1.1875c0.635,0 1.14844,-0.5325 1.14844,-1.1875c0,-0.656 -0.51344,-1.1875 -1.14844,-1.1875zM49.76172,63.66797c-0.635,0 -1.15039,0.53055 -1.15039,1.18555c0,0.655 0.51539,1.18945 1.15039,1.18945c0.635,0 1.14844,-0.53345 1.14844,-1.18945c0,-0.656 -0.51344,-1.18555 -1.14844,-1.18555z"></path></g></g></svg>